<svg viewBox="0 0 793.19 124.08" xmlns="http://www.w3.org/2000/svg"><g fill="#fff"><path d="m99.16 61.99 10.75 10.75-9.7 9.71-10.75-10.76-10.75 10.76-9.71-9.71 10.75-10.75-10.75-10.75 9.71-9.71 10.75 10.75 10.75-10.75 9.7 9.71z"/><path d="m-923.14 1043.66a20.47 20.47 0 0 1 -20.44-20.45 20.46 20.46 0 0 1 20.44-20.44 20.47 20.47 0 0 1 20.45 20.44 20.47 20.47 0 0 1 -20.45 20.45zm0-27.25a6.81 6.81 0 0 0 -6.8 6.8 6.81 6.81 0 0 0 6.8 6.81 6.81 6.81 0 0 0 6.81-6.81 6.81 6.81 0 0 0 -6.81-6.8z" transform="translate(959 -961.04)"/><path d="m123.78 24.93h-8.36v-16.56h-16.46v-8.37h24.82z"/><path d="m8.37 24.93h-8.37v-24.93h24.82v8.37h-16.45z"/><path d="m24.82 124.08h-24.82v-24.94h8.37v16.57h16.45z"/><path d="m123.78 124.08h-24.82v-8.37h16.46v-16.57h8.36z"/><g transform="translate(959 -961.04)"><path d="m-767.57 987.73h23.84v52.21h31.91v18.48h-55.75z"/><path d="m-641.42 1040.45v18h-58.78v-70.72h57.47v18h-34v8.27h29.9v17.16h-29.9v9.3z"/><path d="m-580.42 1021.16h20.71v29.89c-8.59 5.86-20.4 9-30.81 9-22.82 0-39.49-15.25-39.49-37s16.67-37 40-37c13.94 0 25.15 4.85 32.32 13.63l-15.25 13.44c-4.45-5.15-9.6-7.78-15.86-7.78-10.51 0-17.17 6.77-17.17 17.67 0 10.61 6.66 17.68 16.87 17.68a22.2 22.2 0 0 0 8.68-1.72z"/><path d="m-544.46 987.73h23.83v70.69h-23.83z"/><path d="m-488.71 1006.21h-20.7v-18.48h65.24v18.48h-20.7v52.21h-23.84z"/><path d="m-349.43 1046.1h-26.87l-4.75 12.32h-24.24l30.91-70.69h23.43l30.91 70.69h-24.65zm-6.57-17.17-6.87-17.77-6.86 17.77z"/><path d="m-244.9 1014.39c0 16.36-12.52 26.66-32.22 26.66h-10.2v17.37h-23.83v-70.69h34c19.73 0 32.25 10.27 32.25 26.66zm-24 0c0-5.15-3.13-8.28-9.69-8.28h-8.69v16.56h8.69c6.52 0 9.65-3.13 9.65-8.28z"/><path d="m-165.81 1014.39c0 16.36-12.53 26.66-32.22 26.66h-10.2v17.37h-23.84v-70.69h34c19.73 0 32.26 10.27 32.26 26.66zm-24 0c0-5.15-3.13-8.28-9.7-8.28h-8.68v16.56h8.68c6.51 0 9.66-3.13 9.66-8.28z"/></g></g></svg>